/* XPM */
static char *a042ec6f2fd74a3efed3d2532bb4906f5j3Z1LfcYOiqCesF[] = {
/* columns rows colors chars-per-pixel */
"32 32 256 2 ",
"   c black",
".  c #010101",
"X  c #020202",
"o  c gray1",
"O  c #040404",
"+  c gray2",
"@  c #060606",
"#  c #070707",
"$  c gray3",
"%  c #090909",
"&  c gray4",
"*  c #0B0B0B",
"=  c #0C0C0C",
"-  c gray5",
";  c #0E0E0E",
":  c gray6",
">  c #101010",
",  c #111111",
"<  c gray7",
"1  c #131313",
"2  c gray8",
"3  c #151515",
"4  c #161616",
"5  c gray9",
"6  c #181818",
"7  c #191919",
"8  c gray10",
"9  c #1B1B1B",
"0  c gray11",
"q  c #1D1D1D",
"w  c #1E1E1E",
"e  c gray12",
"r  c #202020",
"t  c gray13",
"y  c #222222",
"u  c #232323",
"i  c gray14",
"p  c #252525",
"a  c gray15",
"s  c #272727",
"d  c #282828",
"f  c gray16",
"g  c #2A2A2A",
"h  c gray17",
"j  c #2C2C2C",
"k  c #2D2D2D",
"l  c gray18",
"z  c #2F2F2F",
"x  c gray19",
"c  c #313131",
"v  c #323232",
"b  c gray20",
"n  c #343434",
"m  c #353535",
"M  c gray21",
"N  c #373737",
"B  c gray22",
"V  c #393939",
"C  c #3A3A3A",
"Z  c gray23",
"A  c #3C3C3C",
"S  c gray24",
"D  c #3E3E3E",
"F  c #3F3F3F",
"G  c gray25",
"H  c #414141",
"J  c gray26",
"K  c #434343",
"L  c #444444",
"P  c gray27",
"I  c #464646",
"U  c gray28",
"Y  c #484848",
"T  c #494949",
"R  c gray29",
"E  c #4B4B4B",
"W  c #4C4C4C",
"Q  c gray30",
"!  c #4E4E4E",
"~  c gray31",
"^  c #505050",
"/  c #515151",
"(  c gray32",
")  c #535353",
"_  c gray33",
"`  c #555555",
"'  c #565656",
"]  c gray34",
"[  c #585858",
"{  c gray35",
"}  c #5A5A5A",
"|  c #5B5B5B",
" . c gray36",
".. c #5D5D5D",
"X. c gray37",
"o. c #5F5F5F",
"O. c #606060",
"+. c gray38",
"@. c #626262",
"#. c gray39",
"$. c #646464",
"%. c #656565",
"&. c gray40",
"*. c #676767",
"=. c #686868",
"-. c DimGray",
";. c #6A6A6A",
":. c gray42",
">. c #6C6C6C",
",. c #6D6D6D",
"<. c gray43",
"1. c #6F6F6F",
"2. c gray44",
"3. c #717171",
"4. c #727272",
"5. c gray45",
"6. c #747474",
"7. c gray46",
"8. c #767676",
"9. c #777777",
"0. c gray47",
"q. c #797979",
"w. c gray48",
"e. c #7B7B7B",
"r. c #7C7C7C",
"t. c gray49",
"y. c #7E7E7E",
"u. c gray50",
"i. c #808080",
"p. c #818181",
"a. c gray51",
"s. c #838383",
"d. c #848484",
"f. c gray52",
"g. c #868686",
"h. c gray53",
"j. c #888888",
"k. c #898989",
"l. c gray54",
"z. c #8B8B8B",
"x. c gray55",
"c. c #8D8D8D",
"v. c #8E8E8E",
"b. c gray56",
"n. c #909090",
"m. c gray57",
"M. c #929292",
"N. c #939393",
"B. c gray58",
"V. c #959595",
"C. c gray59",
"Z. c #979797",
"A. c #989898",
"S. c gray60",
"D. c #9A9A9A",
"F. c #9B9B9B",
"G. c gray61",
"H. c #9D9D9D",
"J. c gray62",
"K. c #9F9F9F",
"L. c #A0A0A0",
"P. c gray63",
"I. c #A2A2A2",
"U. c gray64",
"Y. c #A4A4A4",
"T. c #A5A5A5",
"R. c gray65",
"E. c #A7A7A7",
"W. c gray66",
"Q. c #A9A9A9",
"!. c #AAAAAA",
"~. c gray67",
"^. c #ACACAC",
"/. c gray68",
"(. c #AEAEAE",
"). c #AFAFAF",
"_. c gray69",
"`. c #B1B1B1",
"'. c #B2B2B2",
"]. c gray70",
"[. c #B4B4B4",
"{. c gray71",
"}. c #B6B6B6",
"|. c #B7B7B7",
" X c gray72",
".X c #B9B9B9",
"XX c gray73",
"oX c #BBBBBB",
"OX c #BCBCBC",
"+X c gray74",
"@X c gray",
"#X c gray75",
"$X c #C0C0C0",
"%X c #C1C1C1",
"&X c gray76",
"*X c #C3C3C3",
"=X c gray77",
"-X c #C5C5C5",
";X c #C6C6C6",
":X c gray78",
">X c #C8C8C8",
",X c gray79",
"<X c #CACACA",
"1X c #CBCBCB",
"2X c gray80",
"3X c #CDCDCD",
"4X c #CECECE",
"5X c gray81",
"6X c #D0D0D0",
"7X c gray82",
"8X c #D2D2D2",
"9X c LightGray",
"0X c gray83",
"qX c #D5D5D5",
"wX c gray84",
"eX c #D7D7D7",
"rX c #D8D8D8",
"tX c gray85",
"yX c #DADADA",
"uX c gray86",
"iX c gainsboro",
"pX c #DDDDDD",
"aX c gray87",
"sX c #DFDFDF",
"dX c gray88",
"fX c #E1E1E1",
"gX c #E2E2E2",
"hX c gray89",
"jX c #E4E4E4",
"kX c gray90",
"lX c #E6E6E6",
"zX c #E7E7E7",
"xX c gray91",
"cX c #E9E9E9",
"vX c #EAEAEA",
"bX c gray92",
"nX c #ECECEC",
"mX c gray93",
"MX c #EEEEEE",
"NX c #EFEFEF",
"BX c gray94",
"VX c #F1F1F1",
"CX c gray95",
"ZX c #F3F3F3",
"AX c #F4F4F4",
"SX c gray96",
"DX c #F6F6F6",
"FX c gray97",
"GX c #F8F8F8",
"HX c #F9F9F9",
"JX c gray98",
"KX c #FBFBFB",
"LX c gray99",
"PX c #FDFDFD",
"IX c #FEFEFE",
"UX c white",
/* pixels */
"M B Z C N b c c N B N n c c m C Z C v k v V D J A b N V D U F B ",
"M B V V N M n b M N B M b v m B M v k f h v B B b j l x V F m c ",
"M M N B B N M M m N V B m n m N n j g d p j n x h f d f M C j k ",
"b M V V N m m M m N V B M m M B B j j g u j M z f g d f V V g z ",
"c N A Z M v v n M N B N M m N B Z z k g u j N c d f d f V B f x ",
"n V S A m c x v M M N M M M N B V x j f p k M b d p a g M M f z ",
"Z A A C M b c c n m M N N M M m M b l g j v M M l a g z M N z v ",
"J D C N M M n v c n M B B N m b m M c l b N N V m f z M V A N B ",
"D B M N B S S n k d j n B M z p p k n V C c g h B m M B B S F C ",
"S N n v v N B b k g f k c x h d t d v n l s d h l m B n l l v N ",
"A N m b c m M x d h d h b l i p u u k x a u d d s m M l g p d n ",
"Z M m m m N m j d k s f M x u p d t g c d s j i f M v g k f s b ",
"A m v v n B m h j l p a m v a d p t l m g s h u g B n h k f d n ",
"G B b v n V V c f h f x Z m s i t a n B g u d d h C Z c g p g N ",
"D C C V N V C n j k c B Z m j a g l n M x g g k v C S M k j v C ",
"m B D F V N m z Z m n b z x m M V M x v B M x z Z C Z V m V D A ",
"z j V D z h x g b N v g s a k V B k s f k M Z N z k h b F D N N ",
"c k N Z l h l s c m h u p p g M x p u p i l N b p d s z S V z c ",
"b l M V z j k d z n f t d d s n h r i d y g n z p g a k A M f l ",
"c z m B z h h d j n g u h f a b h r s j a k m j j z s h Z m d k ",
"c v N N z d a a l n h u s a d M k y i f s x N x k k s j Z M f h ",
"B C C B v h d g M m z s p s x C v f i p g b C C j h k m A B z k ",
"F S N m M v z v V b n c g l m m b n k g v m M A b z M S B m N m ",
"D B z k m M n N m k m C x v n f x C m v C n j n A n A D l l C A ",
"C b l h j m N k h j j z n l s s a c V M k f h l B N B v d d x n ",
"B n x k k n n h g g h c m j u i i k b c g d f j m m c j d d j x ",
"B n v c x m n h j g h b M h u a p h x l g f f g b m z g l j f l ",
"B v x x v N m j k h h b M h i g a k c x h f f f c B x g v l d c ",
"V c l x n V B x h h k m V l s h g c M n l h g g b C c d j g g B ",
"S M m N B A S B j x m Z D M l x b B C B n b v x N Z n g f h v H ",
"Z C S D B N C V m V B N C V M B Z V M m N C V M n N B n x c V H ",
"n N D S v k c b A S m j z n V D Z n k k n A Z N g z B A N M V B "
};
