/* XPM */
static char *_469784f122d4f6fb29985bde18ed763IkQ04JBIOiKOSIaj[] = {
/* columns rows colors chars-per-pixel */
"32 32 219 2 ",
"   c #010101",
".  c #0A0102",
"X  c #010A01",
"o  c #0A0A05",
"O  c #03020A",
"+  c #0B010C",
"@  c #000B0C",
"#  c #0D0A0D",
"$  c #130204",
"%  c #1A0B05",
"&  c #11010B",
"*  c #130D0D",
"=  c #180A09",
"-  c #0C160D",
";  c #11140C",
":  c #1A1805",
">  c #010312",
",  c #0A0212",
"<  c #020B13",
"1  c #070717",
"2  c #180815",
"3  c #041112",
"4  c #131514",
"5  c #220607",
"6  c #3A0E0F",
"7  c #2A1E02",
"8  c #360D11",
"9  c #221817",
"0  c #361615",
"q  c #300F0C",
"w  c #1D2902",
"e  c #142115",
"r  c #2D220A",
"t  c #272605",
"y  c #3D2B0B",
"u  c #362D05",
"i  c #3A320A",
"p  c #2E2517",
"a  c #3C2615",
"s  c #330521",
"d  c #4C0D0E",
"f  c #5E1109",
"g  c #4A1216",
"h  c #571715",
"j  c #710000",
"k  c #650917",
"l  c #7F0F1D",
"z  c #6E1316",
"x  c #761417",
"c  c #6B120C",
"v  c #432F00",
"b  c #453808",
"n  c #56390C",
"m  c #482B1A",
"M  c #5C3814",
"N  c #502E17",
"B  c #6A3D18",
"V  c #673206",
"C  c #7E1926",
"Z  c #4E2D36",
"A  c #4B4A00",
"S  c #494809",
"D  c #59460B",
"F  c #585A0E",
"G  c #5A5503",
"H  c #66550D",
"J  c #795F02",
"K  c #6A4614",
"L  c #685717",
"P  c #7A5014",
"I  c #74431A",
"U  c #5C7205",
"Y  c #666908",
"T  c #746708",
"R  c #7D760A",
"E  c #7B7C0A",
"W  c #7A7802",
"Q  c #6E6915",
"!  c #6D4929",
"~  c #703C40",
"^  c #9F0C1C",
"/  c #881815",
"(  c #951C1B",
")  c #B21A18",
"_  c #891526",
"`  c #971A21",
"'  c #9D1825",
"]  c #8A0E33",
"[  c #A31123",
"{  c #A41A2A",
"}  c #B71A26",
"|  c #C1141C",
" . c #D61A1D",
".. c #D30E17",
"X. c #E31D1E",
"o. c #DD2218",
"O. c #C52519",
"+. c #ED241A",
"@. c #F4231C",
"#. c #C91928",
"$. c #DE1C25",
"%. c #D51B28",
"&. c #DA1932",
"*. c #E41C22",
"=. c #F91B29",
"-. c #E31F33",
";. c #F71E31",
":. c #CE2329",
">. c #DF2123",
",. c #D4262C",
"<. c #D72523",
"1. c #CC2133",
"2. c #D52433",
"3. c #E32225",
"4. c #E42229",
"5. c #EE242A",
"6. c #F5262B",
"7. c #E42333",
"8. c #EC2233",
"9. c #F32135",
"0. c #F9203D",
"q. c #8E530F",
"w. c #875217",
"e. c #915013",
"r. c #B65F0F",
"t. c #856C06",
"y. c #827302",
"u. c #89780B",
"i. c #956913",
"p. c #857112",
"a. c #937A10",
"s. c #A6671A",
"d. c #BB661E",
"f. c #BF7315",
"g. c #96552B",
"h. c #A35628",
"j. c #8A7921",
"k. c #AE6521",
"l. c #B76927",
"z. c #C97016",
"x. c #D97919",
"c. c #C16417",
"v. c #EA791B",
"b. c #E27E28",
"n. c #B83A4F",
"m. c #934F5A",
"M. c #A6424A",
"N. c #B66168",
"B. c #D25F62",
"V. c #7E8511",
"C. c #8B8A00",
"Z. c #958401",
"A. c #988A09",
"S. c #9E950C",
"D. c #8A8614",
"F. c #958112",
"G. c #9C9111",
"H. c #A68804",
"J. c #A79C0B",
"K. c #A99406",
"L. c #B59705",
"P. c #A88E19",
"I. c #BA9D11",
"U. c #A99719",
"Y. c #B6A204",
"T. c #BDAB0D",
"R. c #AEA210",
"E. c #BFA51C",
"W. c #C09803",
"Q. c #F2830F",
"!. c #E88A1E",
"~. c #FF851A",
"^. c #FC8B1B",
"/. c #F48614",
"(. c #FC921A",
"). c #FF981C",
"_. c #C7AA05",
"`. c #C9B405",
"'. c #D6BB04",
"]. c #D9B808",
"[. c #C7AD17",
"{. c #CBB311",
"}. c #C4B212",
"|. c #D9B215",
" X c #E8BE00",
".X c #EB8921",
"XX c #FB8927",
"oX c #FB9927",
"OX c #E6C509",
"+X c #EAC607",
"@X c #FBCF0E",
"#X c #EDD503",
"$X c #EFDD0A",
"%X c #EAD205",
"&X c #F2D301",
"*X c #FCD402",
"=X c #FEDC03",
"-X c #F3D40B",
";X c #FCD30C",
":X c #FDDC0B",
">X c #F5DB07",
",X c #ECCD10",
"<X c #F9D914",
"1X c #F1C91A",
"2X c #F5E502",
"3X c #FDE303",
"4X c #FEEC01",
"5X c #FDE40B",
"6X c #FEEB0B",
"7X c #F6E90F",
"8X c #F6F309",
"9X c #FFF50A",
"0X c #FCF505",
"qX c #FEE311",
"wX c #FFEA11",
"eX c #FFFA1C",
"rX c #F67D86",
"tX c #FDA49C",
"yX c #FEAAA8",
/* pixels */
"        .   X O O   O   X . X   r 7   O   X > .           O     ",
"  <   X   . O .   . X O T S , 9 t ].u   o . X   O     O   O     ",
"O     ,           @   + G 3XA }.G.T.*X2   $         &           ",
".   >         O       F.T $X<XJ H.Z.<XY.y o O O     . p r     . ",
"  % c.!         o O P.9XA.L.a.`.`.'.p u.9Xu.>       < x./.I @ O ",
"  i.oX!.s.v.B     a.4X%X2XE.O Z.5X5Xw ; 1X4XY   .   g.oX^.oXs.  ",
"M ^.~.d.z.w.h.  u :X-X-X:X_.O 7 #X2XA O L.3X%Xt . # Q./..XXX(.y ",
"n oX!.r.P V.E O J.3X;X*X=XOX- O K.0Xp.+ Q 3X0Xa.1 K s.)..X~.XXM ",
"@ d.x.e.b.L `.T +X>X;X&X;X6Xb X G eXK.= _.'.H._.4 k.B s.^.(.w.O ",
"  X ; % f.w.+ L 3X$X:X&X&X<X+XH y =X,Xe o D.J.j.t o V N l.q.    ",
"O O O   +   X T 4XY.H wX-X*XOXO w >X%XG [.3X5XC.H w K v.K a O X ",
". .   ,     . E 8X_.2 H.8X$X:XL L qX X#X6X'.i.`.p.P.y.9 y - $ . ",
"  > X .   O   t.4XOXX , T -X3X4X=X;X5X,XL.K.U.W.Q O o .     > O ",
"  X   +   .   T wX*Xp X O 7 y.[.@X=X3X&X{.F.  F G O O o   . .   ",
"  +   o     & u >X3XG O o > > 1 : b A a ; O . F.i   X O     >   ",
"  +       X   ; ].6XL.> o X O o +   O O X + : K.o . >   X   .   ",
"X O $       x ^ t.6X=Xy X 2 6 * X > . + 3   J Q   o     o       ",
"  3     X / 0.-.N '.7XR.% 2.5.| _ x : # O t I.& @ O   o     $   ",
"  . O X f 7. .$.| S qX=XH.z #.5.=.6.)   # {.b @ O & O X   .     ",
".       #.3.,.4.5.[ D -XwXD.M ( { [ ( D `.n       X . & @ O o   ",
"    . 0 8...#.( ) %.s v D |.F S W S.U Z.r X m N.{ z X   O   .   ",
"      8 rXyXyX_ # ] / R R e D '.T N C ]   Z tXM./ 9.`   O   . O ",
"        0 m.~ $   6 c i E   1 p.y.l @.=.k B.n.j 8.3.#.5 O   X   ",
". O       O X . . X O @ +       q o.&.:.'  .k ,.$.<.2.*   . . @ ",
"                                g >.2.%.+.` _ +.1.o.#.& O   .   ",
"                                6 >.3.%.,.x &.7.,.5.}   O       ",
"                                O d #.=.#.c *.#. .;.z         . ",
"                                  @ 0 7.} ( 6. .X.&.% O         ",
"                                .   X q ' ' 4.O.5.C   .     +   ",
"                                        % { *.4.} % @     O o   ",
"                                  o O +   h 9.&.d   +   O .     ",
"                                    O   . X g = X & X . @ O   O "
};
